<?xml version="1.0" encoding="utf-8"?>
<!-- Generator: Adobe Illustrator 19.1.0, SVG Export Plug-In . SVG Version: 6.00 Build 0)  -->
<svg version="1.1" id="레이어_1" xmlns="http://www.w3.org/2000/svg" xmlns:xlink="http://www.w3.org/1999/xlink" x="0px"
	 y="0px" viewBox="0 0 696 170" enable-background="new 0 0 696 170" xml:space="preserve">
<g id="XMLID_8_">
	<path id="XMLID_16_" fill="#393A39" d="M172.7,125.9v28.4h-8.8V79.1h20.7c8,0,14.3,2,18.7,5.9c4.4,3.9,6.6,9.4,6.6,16.6
		c0,7.1-2.5,13-7.4,17.5c-4.9,4.5-11.6,6.8-19.9,6.8H172.7z M172.7,87.1v30.9h9.2c6.1,0,10.7-1.4,13.9-4.2c3.2-2.8,4.8-6.7,4.8-11.8
		c0-9.9-5.9-14.9-17.6-14.9H172.7z"/>
	<path id="XMLID_22_" fill="#393A39" d="M333,154.4c-6.6,0-10.3,0-18.6,0c-10.7,0-19.3-2.2-25.7-9.1c-6.4-6.9-9.7-15.9-9.7-27.1
		c0-12,3.6-21.8,10.9-29.2c7.2-7.4,16.4-9.9,27.6-9.9c7.1,0,9.5,0,15.5,0v8c-6.9,0-9.1,0-15.6,0c-8.6,0-15.7,1.6-21,7.4
		c-5.4,5.8-8.1,13.5-8.1,23.1c0,9.2,2.5,16.5,7.5,21.9c5,5.4,11.7,6.3,19.9,6.3c7.6,0,9.9-0.1,17.3-0.1V154.4z"/>
	<path id="XMLID_19_" fill="#393A39" d="M502.8,154.4c-6.6,0-10.3,0-18.6,0c-10.7,0-19.3-2.2-25.7-9.1c-6.4-6.9-9.7-15.9-9.7-27.1
		c0-12,3.6-21.8,10.9-29.2c7.2-7.4,16.4-9.9,27.6-9.9c7.1,0,9.5,0,15.5,0v8c-6.9,0-9.1,0-15.6,0c-8.6,0-15.7,1.6-21,7.4
		c-5.4,5.8-8.1,13.5-8.1,23.1c0,9.2,2.5,16.5,7.5,21.9c5,5.4,11.7,6.3,19.9,6.3c7.6,0,9.9-0.1,17.3-0.1V154.4z"/>
	<path id="XMLID_24_" fill="#393A39" d="M357.2,154.4h-8.8V79.1h8.8V154.4z"/>
	<path id="XMLID_26_" fill="#393A39" d="M415.2,87.1h-29.4v26H413v7.9h-27.2v33.3H377V79.1h38.2V87.1z"/>
	<path id="XMLID_28_" fill="#393A39" d="M438.3,154.4h-8.8V79.1h8.8V154.4z"/>
</g>
<g id="XMLID_135_">
	<path id="XMLID_136_" fill="#757576" d="M170.1,44.4h-6.3v-37h6.3V44.4z"/>
	<path id="XMLID_138_" fill="#757576" d="M200,44.4h-20.8v-37h20v5.2h-13.8V23h12.7v5.2h-12.7v10.9H200V44.4z"/>
	<path id="XMLID_140_" fill="#757576" d="M227.4,44.4h-20.8v-37h20v5.2h-13.8V23h12.7v5.2h-12.7v10.9h14.6V44.4z"/>
	<path id="XMLID_142_" fill="#757576" d="M254.8,44.4H234v-37h20v5.2h-13.8V23h12.7v5.2h-12.7v10.9h14.6V44.4z"/>
</g>
<g id="XMLID_14_">
	<path id="XMLID_30_" fill="#393A39" d="M604.8,80.4l-26.6,74h-13.7l-26.1-74h13.4l18.3,56.1c0.6,1.8,1,3.9,1.3,6.2h0.2
		c0.2-2,0.7-4.1,1.5-6.3l18.7-56H604.8z"/>
	<path id="XMLID_32_" fill="#393A39" d="M627.2,154.4h-12.6v-74h12.6V154.4z"/>
	<path id="XMLID_35_" fill="#393A39" d="M641.7,143.5c3.7,0,15.6,0,23.6-0.1c4.8-0.1,7.1-0.7,9.1-1.8c2.1-1.1,4-3.3,3.7-6.2
		c-0.2-2.6-1.1-3.8-2.1-4.9c-1.1-1.2-2.8-2.2-4.4-3.2c-1.8-1.1-3.3-1.9-5.3-2.9c-2-1-4.3-2.2-6.6-3.2c-2.5-1.3-4.8-2.7-7-4.1
		c-2.2-1.4-4-2.9-5.6-4.6c-1.6-1.7-2.9-3.6-3.8-5.6c-0.9-2.1-1.7-4.9-1.7-7.7c0-3.5,0.8-6.5,2.3-9.1s3.6-4.7,6.2-6.3
		c2.6-1.7,4.2-2.3,8.2-3.2c3.4-0.8,7.3-0.9,10.7-0.9c7.7,0,11.6,0,16.8,0v10.9c-6.5,0-10.8-0.1-17.4-0.1c-5.3,0-9,0.7-11.3,2.6
		c-2.2,1.8-2.5,4-2.5,5.7c0,1.7,0.7,3.4,1.3,4.6s1.7,2.3,3,3.3c1.3,1,2.9,2,4.8,2.9c1.9,0.9,3.9,2.2,6.4,3.3c2.6,1.3,5.2,2.6,7.5,4
		c2.3,1.5,4.2,2.6,6.4,4.3c1.9,1.6,4.3,4.3,5.3,6.5c1,2.2,1.5,4.7,1.5,7.5c0,3.7-0.1,6.3-2,10c-1.7,3.2-2.8,4.4-5.3,6.1
		c-3,2.1-9.5,3.1-18,3.1c-3.9,0-18.9,0-23.8,0V143.5z"/>
</g>
<path id="XMLID_33_" fill="#393A39" d="M246.1,79.1h-9.1l-28.9,75.3h9.8L240,93.3c0.5-1.2,0.9-2.9,1.2-5h0.2c0.4,2.3,0.8,4,1.2,5
	l22.7,61.1h9.8L246.1,79.1z"/>
<path id="XMLID_1_" fill="#393A39" d="M121.4,103.6"/>
<linearGradient id="XMLID_3_" gradientUnits="userSpaceOnUse" x1="597.9556" y1="27.4596" x2="644.9043" y2="27.4596">
	<stop  offset="0" style="stop-color:#F68830"/>
	<stop  offset="1" style="stop-color:#EB5959"/>
</linearGradient>
<polygon id="XMLID_53_" fill="url(#XMLID_3_)" points="644.9,27.5 621.4,4 598,27.5 621.4,50.9 "/>
<path fill="#4166B0" d="M6.2,86.7c37,28,78.2-61.9,125-19.7C95.2,43.6,48.1,126.4,6.2,86.7"/>
<g opacity="0.65">
	<g>
		<defs>
			<rect id="SVGID_1_" x="10.8" y="120.5" width="114.4" height="39.8"/>
		</defs>
		<clipPath id="SVGID_2_">
			<use xlink:href="#SVGID_1_"  overflow="visible"/>
		</clipPath>
		<polyline clip-path="url(#SVGID_2_)" fill="none" stroke="#4166B0" stroke-width="3" stroke-miterlimit="10" points="11.4,149.8 
			34.5,158.7 100.3,122.2 124.8,129.7 		"/>
	</g>
</g>
<path fill="#4166B0" d="M119.6,129.7c0,2.9,2.3,5.2,5.2,5.2c2.9,0,5.2-2.3,5.2-5.2c0-2.9-2.3-5.2-5.2-5.2
	C121.9,124.5,119.6,126.8,119.6,129.7"/>
<path fill="#4166B0" d="M94.8,122.2c0,2.9,2.3,5.2,5.2,5.2c2.9,0,5.2-2.3,5.2-5.2c0-2.9-2.3-5.2-5.2-5.2
	C97.1,117,94.8,119.3,94.8,122.2"/>
<path fill="#4166B0" d="M29.4,158.7c0,2.9,2.3,5.2,5.2,5.2c2.9,0,5.2-2.3,5.2-5.2s-2.3-5.2-5.2-5.2
	C31.7,153.5,29.4,155.8,29.4,158.7"/>
<path fill="#4166B0" d="M6.2,149.5c0,2.9,2.3,5.2,5.2,5.2c2.9,0,5.2-2.3,5.2-5.2c0-2.9-2.3-5.2-5.2-5.2
	C8.5,144.3,6.2,146.6,6.2,149.5"/>
<polygon fill="#92A1B6" points="22.9,125.1 6.3,119.6 21.2,128.9 "/>
<polygon fill="#8293B5" points="39.1,120.9 22.9,125.1 21.2,128.9 41.3,129.7 "/>
<polygon fill="#7386B3" points="88.9,90.5 39,120.9 41.2,129.7 93,103.4 "/>
<polygon fill="#637BB1" points="105.9,88.5 88.9,90.5 93,103.4 106.9,98.9 "/>
<polygon fill="#5370B0" points="105.9,88.5 121.5,92.9 121.4,97.2 106.9,98.9 "/>
<polygon fill="#4166B0" points="121.5,92.9 131.2,99.9 121.4,97.2 "/>
</svg>
